<?xml version="1.0" encoding="utf-8"?>
<!-- Generator: Adobe Illustrator 21.1.0, SVG Export Plug-In . SVG Version: 6.00 Build 0)  -->
<svg version="1.1" id="レイヤー_1" xmlns="http://www.w3.org/2000/svg" xmlns:xlink="http://www.w3.org/1999/xlink" x="0px"
	 y="0px" viewBox="0 0 66.3 50" style="enable-background:new 0 0 66.3 50;" xml:space="preserve">
<style type="text/css">
	.st0{fill:#FFF100;}
</style>
<g id="contest">
	<g>
		<path class="st0" d="M25.7,9.4h40.6V50H25.7V9.4z"/>
		<g>
			<path class="st0" d="M14.1,5.4v6.4c0,5.7,4.2,10.3,9.5,10.3c5.2,0,9.5-4.6,9.5-10.3V5.4H14.1z"/>
			<g>
				<rect x="13.5" y="5.3" width="3" height="8.1"/>
				<path d="M28.9,34.2H12.2c-0.7,0-1.2,0.5-1.2,1.2s0.5,1.2,1.2,1.2h16.7c0.7,0,1.2-0.5,1.2-1.2C30,34.7,29.5,34.2,28.9,34.2z"/>
				<path d="M39.3,4.3c-0.1-0.6-0.6-0.9-1.2-0.9h-5.8V2.2c0-0.7-0.5-1.2-1.2-1.2H9.8C9.2,1,8.6,1.6,8.6,2.2v1.2H3
					c-0.6,0-1,0.4-1.2,0.9c0,0.2-0.8,4.3,1.5,7.1C4.7,13.1,6.7,14,9.4,14c1.5,4.5,5.3,7.8,9.9,8.3v8.2h-3.6c-0.7,0-1.2,0.5-1.2,1.2
					s0.5,1.2,1.2,1.2h9.6c0.7,0,1.2-0.5,1.2-1.2s-0.5-1.2-1.2-1.2h-3.6v-8.2c4.6-0.5,8.4-3.8,10-8.3c2.8,0,4.8-0.9,6.2-2.6
					C40.1,8.7,39.3,4.5,39.3,4.3z M5.2,10C4.2,8.7,4,6.8,4.1,5.8h4.6v4c0,0.6,0.1,1.2,0.1,1.9C7.2,11.5,6,10.9,5.2,10z M30,9.8
					c0,5.7-4.2,10.3-9.5,10.3c-5.2,0-9.5-4.6-9.5-10.3V3.4h18.9v6.4H30z M36,10c-0.8,1-2.1,1.5-3.8,1.6c0.1-0.6,0.1-1.2,0.1-1.9v-4
					H37C37.1,6.8,37,8.7,36,10z"/>
			</g>
		</g>
	</g>
</g>
</svg>
