<?xml version="1.0" encoding="utf-8"?>
<!-- Generator: Adobe Illustrator 21.1.0, SVG Export Plug-In . SVG Version: 6.00 Build 0)  -->
<svg version="1.1" id="date" xmlns="http://www.w3.org/2000/svg" xmlns:xlink="http://www.w3.org/1999/xlink" x="0px" y="0px"
	 viewBox="0 0 33.9 34" style="enable-background:new 0 0 33.9 34;" xml:space="preserve">
<style type="text/css">
	.st0{fill:#FF5A00;}
	.st1{fill:#FFF100;}
</style>
<g>
	<path id="長方形_23" class="st0" d="M14.9,7h1c0.6,0,1,0.4,1,1v9c0,0.6-0.4,1-1,1h-1c-0.6,0-1-0.4-1-1V8C13.9,7.4,14.3,7,14.9,7
		z M15.4,15h8c0.8,0,1.5,0.7,1.5,1.5c0,0.8-0.7,1.5-1.5,1.5h-8c-0.8,0-1.5-0.7-1.5-1.5C13.9,15.7,14.6,15,15.4,15z"/>
	<circle id="楕円形_6" class="st1" cx="18.9" cy="19" r="15"/>
	<path id="_28-interface_-_clock_time" d="M16,32C7.1,32,0,24.8,0,16S7.2,0,16,0c8.8,0,16,7.2,16,16C32,24.8,24.8,32,16,32z M16,2
		C8.2,2,2,8.3,2,16s6.3,14,14,14c7.7,0,14-6.3,14-14C30,8.3,23.7,2,16,2z M24,18h-9c0,0,0,0,0,0c-0.3,0-0.6-0.2-0.8-0.4
		c-0.1-0.2-0.2-0.4-0.2-0.6c0,0,0,0,0,0V8c0-0.6,0.4-1,1-1c0.6,0,1,0.4,1,1v8h8c0.5,0,1,0.4,1,1S24.5,18,24,18C24,18,24,18,24,18z"
		/>
</g>
</svg>
