<?xml version="1.0" encoding="utf-8"?>
<!-- Generator: Adobe Illustrator 21.1.0, SVG Export Plug-In . SVG Version: 6.00 Build 0)  -->
<svg version="1.1" xmlns="http://www.w3.org/2000/svg" xmlns:xlink="http://www.w3.org/1999/xlink" x="0px"
	 y="0px" viewBox="0 0 24.1 24.1" style="enable-background:new 0 0 24.1 24.1;" xml:space="preserve">
<style type="text/css">
	.st0{fill:#FFF100;}
</style>
<ellipse class="st0" cx="14.1" cy="14.1" rx="10" ry="10"/>
<path d="M10,20C10,20,9.9,20,10,20C4.4,19.9,0,15.5,0,10C0,4.5,4.5,0,10,0c0,0,0,0,0,0h0c2.7,0,5.2,1.1,7,3C19,4.9,20,7.4,20,10.1
	C19.9,15.6,15.5,20,10,20z M10,1.8c-4.5,0-8.2,3.7-8.2,8.2c0,4.5,3.6,8.1,8.1,8.2c0,0,0.1,0,0.1,0c4.5,0,8.1-3.6,8.2-8.1
	c0-2.2-0.8-4.2-2.3-5.8C14.3,2.7,12.3,1.9,10,1.8C10.1,1.8,10.1,1.8,10,1.8z"/>
</svg>
