<?xml version="1.0" encoding="utf-8"?>
<!-- Generator: Adobe Illustrator 21.1.0, SVG Export Plug-In . SVG Version: 6.00 Build 0)  -->
<svg version="1.1" id="money" xmlns="http://www.w3.org/2000/svg" xmlns:xlink="http://www.w3.org/1999/xlink" x="0px" y="0px"
	 viewBox="0 0 33.9 34" style="enable-background:new 0 0 33.9 34;" xml:space="preserve">
<style type="text/css">
	.st0{fill:#5AB431;}
</style>
<path d="M31,30H8.9c-1.1,0-2-0.9-2-2v-2h2v1c0,0.6,0.4,1,1,1H30c0.6,0,1-0.4,1-1V13c0-0.6-0.4-1-1-1h-6v-1c0-0.6,4.6-1,4-1h3
	c1.1,0,2,0.9,2,2l0,0v16C33,29.1,32.1,30,31,30z"/>
<path id="長方形_24" class="st0" d="M7.9,8h18c1.7,0,3,1.3,3,3v12c0,1.7-1.3,3-3,3h-18c-1.7,0-3-1.3-3-3V11C4.9,9.3,6.2,8,7.9,8z
	"/>
<path id="_51-ecommerce_-_finance_coin_money_cash_yen" d="M17.1,13.7v0.7h-2.5v1.3h2.5v0.7h-2.5V19h-1.3v-2.7h-2.5v-0.7h2.5v-1.3
	h-2.5v-0.7h1.9L10.2,9h1.1l2,3.5c-0.1-0.2,1.4-0.3,1.2,0l2-3.5h1.1l-2.5,4.7H17.1L17.1,13.7z"/>
<g>
	<g>
		<path d="M25,4H2.9c-1.1,0-2,0.9-2,2v16c0,1.1,0.9,2,2,2H25c1.1,0,2-0.9,2-2V6C27,4.9,26.1,4,25,4z M25,7v14c0,0.6-0.4,1-1,1H3.9
			c-0.6,0-1-0.4-1-1V7c0-0.6,0.4-1,1-1H24C24.5,6,25,6.4,25,7L25,7z"/>
	</g>
</g>
</svg>
