<?xml version="1.0" encoding="utf-8"?>
<!-- Generator: Adobe Illustrator 21.1.0, SVG Export Plug-In . SVG Version: 6.00 Build 0)  -->
<svg version="1.1" id="pin" xmlns="http://www.w3.org/2000/svg" xmlns:xlink="http://www.w3.org/1999/xlink" x="0px" y="0px"
	 viewBox="0 0 33.9 34" style="enable-background:new 0 0 33.9 34;" xml:space="preserve">
<style type="text/css">
	.st0{fill:#F2554D;}
</style>
<g>
	<g>
		<polygon class="st0" points="18,34 18,34 18,34 		"/>
		<path class="st0" d="M27.8,7.6c-3.3-5.4-10.4-7.2-15.8-3.9S4.8,14.1,8.1,19.6l9.1,14c0.2,0.3,0.5,0.4,0.8,0.4
			c0.3,0,0.6-0.2,0.8-0.4l9.1-14C30,15.8,30,11.2,27.8,7.6z M17.9,18c-2.5,0-4.5-2-4.5-4.5c0-2.5,2-4.5,4.5-4.5s4.5,2,4.5,4.5
			C22.4,16,20.4,18,17.9,18z"/>
	</g>
	<path d="M16,32c-0.3,0-0.6-0.2-0.8-0.4l-9.1-14C2.8,12.1,4.5,5,9.9,1.7s12.5-1.6,15.8,3.9c2.2,3.7,2.2,8.3,0,12l-9.1,14
		C16.6,31.8,16.3,32,16,32L16,32L16,32z M15.9,2c-5.3,0-9.6,4.2-9.6,9.5c0,1.8,0.5,3.5,1.4,5L16,29.2l8.3-12.8
		c0.9-1.5,1.4-3.2,1.3-4.9C25.5,6.2,21.2,2,15.9,2z M15.9,17c-3,0-5.5-2.4-5.5-5.5c0-3,2.4-5.5,5.5-5.5c3,0,5.5,2.4,5.5,5.5
		c0,0,0,0,0,0C21.4,14.5,19,17,15.9,17z M15.9,8c-1.9,0-3.5,1.6-3.5,3.5c0,1.9,1.6,3.5,3.5,3.5c1.9,0,3.5-1.6,3.5-3.5
		C19.5,9.6,17.9,8,15.9,8z"/>
</g>
</svg>
