<?xml version="1.0" encoding="utf-8"?>
<!-- Generator: Adobe Illustrator 21.1.0, SVG Export Plug-In . SVG Version: 6.00 Build 0)  -->
<svg version="1.1" id="レイヤー_1" xmlns="http://www.w3.org/2000/svg" xmlns:xlink="http://www.w3.org/1999/xlink" x="0px"
	 y="0px" viewBox="0 0 66.3 50" style="enable-background:new 0 0 66.3 50;" xml:space="preserve">
<style type="text/css">
	.st0{fill:#0065B4;}
</style>
<g id="session">
	<g>
		<path class="st0" d="M25.7,9.4h40.6V50H25.7V9.4z"/>
		<g>
			<path class="st0" d="M23.1,3.3c-2.5,0-4.5,1.8-4.5,4v14.8c0,2.1,1.9,3.6,4.5,3.6h0.4c2.6,0,4.3-1.4,4.3-3.6V7.3
				c0-2.3-1.8-4-4.3-4C23.5,3.3,23.1,3.3,23.1,3.3z"/>
			<g>
				<path d="M20.2,25.8h0.3c3.3,0,5.6-2.4,5.6-5.7v-14c0-3.4-2.5-6.1-5.6-6.1h-0.3c-3.2,0-5.8,2.7-5.8,6.1v14
					C14.4,23.4,16.9,25.8,20.2,25.8z M16.7,6.1c0-2.1,1.6-3.8,3.5-3.8h0.3c1.9,0,3.3,1.6,3.3,3.8v14c0,2-1.3,3.4-3.3,3.4h-0.3
					c-2.1,0-3.5-1.4-3.5-3.4V6.1z"/>
				<path d="M30.8,12.9c-0.6,0-1.2,0.5-1.2,1.2V19c0,7-2.5,10.4-7.6,10.4h-3.5c-6.7,0-7.7-5.6-7.7-10.4v-4.9c0-0.6-0.5-1.2-1.2-1.2
					c-0.6,0-1.2,0.5-1.2,1.2V19c0.1,8,3.5,12.7,10.1,12.7H19v3.5h-5.8c-0.6,0-1.2,0.5-1.2,1.2c0,0.6,0.5,1.2,1.2,1.2h5.9h2.3h5.9
					c0.6,0,1.2-0.5,1.2-1.2c0-0.6-0.5-1.2-1.2-1.2h-5.9v-3.5H22c4.5,0,10-2.2,10-12.7v-4.9C32,13.4,31.5,12.9,30.8,12.9z"/>
			</g>
		</g>
	</g>
</g>
</svg>
