<?xml version="1.0" encoding="utf-8"?>
<!-- Generator: Adobe Illustrator 21.1.0, SVG Export Plug-In . SVG Version: 6.00 Build 0)  -->
<svg version="1.1" id="sponcer" xmlns="http://www.w3.org/2000/svg" xmlns:xlink="http://www.w3.org/1999/xlink" x="0px" y="0px"
	 viewBox="0 0 33.9 34" style="enable-background:new 0 0 33.9 34;" xml:space="preserve">
<style type="text/css">
	.st0{fill:#0065B4;}
</style>
<g>
	<path id="_29-user_-_male_group" class="st0" d="M23,15.3c0.1,3.1-1.1,6.2-3.2,8.5c2,0.5,6.2,1.6,6.8,2.1c1.5,1.6,1.8,4.1,0.7,6
		c0,0-0.7,0.6-11.3,0.6S4.6,31.9,4.6,31.9c-1.2-1.9-0.9-4.4,0.7-6c0.6-0.6,4.7-1.6,6.8-2.1c-2.1-2.3-3.3-5.3-3.2-8.5
		c0-4.9,1.3-8.8,7-8.8S23,10.4,23,15.3z"/>
	<path id="_29-user_-_male_group-2" d="M32.3,25.9c0,0-0.4,0.3-5.4,0.5c0.1-0.6,0.1-1.3,0-1.9l3.1,0c1.6-0.6,1.2-3.2,0-3.8
		c-0.9-0.4-4.4-1.3-6.5-1.8L23.2,18v-1.3c1.7-1.4,2.8-4.2,2.8-6.8c0-3.6-0.8-6.4-5-6.4c-1.5,0.2-3-0.1-4.2-0.9
		C18,1.8,19.5,1.4,21,1.5c5.7,0,7,3.7,7,8.3c0,3-1.1,5.8-3.1,7.9c2.1,0.5,6.1,1.6,6.7,2.1C33.1,21.5,33.4,24,32.3,25.9z M20,12.3
		c0.1,3.1-1.1,6.2-3.2,8.5c2,0.5,6.2,1.6,6.8,2.1c1.5,1.6,1.8,4.1,0.7,6c0,0-0.7,0.6-11.3,0.6S1.6,28.9,1.6,28.9
		c-1.2-1.9-0.9-4.4,0.7-6c0.6-0.6,4.7-1.6,6.8-2.1c-2.1-2.3-3.3-5.3-3.2-8.5c0-4.9,1.3-8.8,7-8.8S20,7.4,20,12.3z M12.9,5.5
		c-4.2,0-5,3.1-5,6.9c0,2.8,1,5.8,2.8,7.2V21l-0.2,0.8c-1.8,0.5-5.3,1.6-6.2,2c-1.2,0.5-2.1,3.1-0.3,3.8l8.9,0l9.1,0
		c1.6-0.6,1.2-3.2,0-3.8c-0.9-0.4-4.4-1.3-6.5-1.8L15.2,21v-1.4c1.7-1.5,2.8-4.5,2.8-7.2C17.9,8.6,17.1,5.5,12.9,5.5L12.9,5.5z"/>
</g>
</svg>
