<?xml version="1.0" encoding="utf-8"?>
<!-- Generator: Adobe Illustrator 21.1.0, SVG Export Plug-In . SVG Version: 6.00 Build 0)  -->
<svg version="1.1" id="レイヤー_1" xmlns="http://www.w3.org/2000/svg" xmlns:xlink="http://www.w3.org/1999/xlink" x="0px"
	 y="0px" viewBox="0 0 66.3 50" style="enable-background:new 0 0 66.3 50;" xml:space="preserve">
<style type="text/css">
	.st0{fill:#5AB431;}
	.st1{fill:#FFF100;}
</style>
<g id="tenji">
	<g>
		<path class="st0" d="M25.7,9.4h40.6V50H25.7V9.4z"/>
		<g>
			<path class="st1" d="M18.5,25.7c3.9,0,7.1-3.2,7.1-7.1h-7.1V25.7z"/>
			<path class="st0" d="M16,23.6V17h6.6c0-3.6-3-6.6-6.6-6.6s-6.6,3-6.6,6.6C9.4,20.7,12.4,23.6,16,23.6z"/>
			<g>
				<path d="M16.4,24.7c3.9,0,7.1-3.2,7.1-7.1h-7.1V24.7z M18.5,19.6H21c-0.5,1.1-1.4,2.1-2.6,2.6v-2.6H18.5z"/>
				<rect x="27" y="19.8" width="9.4" height="2.5"/>
				<rect x="27" y="15.2" width="9.4" height="2.5"/>
				<rect x="27" y="10.6" width="9.4" height="2.5"/>
				<path d="M41.1,0H1.2C0.5,0,0,0.5,0,1.2v29.2c0,0.6,0.5,1.2,1.2,1.2H20v3.6h-7.4c-0.6,0-1.2,0.5-1.2,1.2c0,0.6,0.5,1.2,1.2,1.2
					h17.2c0.6,0,1.2-0.5,1.2-1.2c0-0.6-0.5-1.2-1.2-1.2h-7.4v-3.6h18.8c0.6,0,1.2-0.5,1.2-1.2V1.2C42.3,0.5,41.8,0,41.1,0z
					 M39.9,29.2H2.3V2.3h37.6C39.9,2.3,39.9,29.2,39.9,29.2z"/>
				<path d="M14.7,24.7v-8.8h8.8c0-4.9-3.9-8.8-8.8-8.8C9.8,7,5.9,11,5.9,15.9C5.9,20.7,9.8,24.7,14.7,24.7z M14.7,9.1
					c3,0,5.6,2,6.5,4.8h-6.5h-2v2v6.5C10,21.5,8,19,8,15.9C7.9,12.1,10.9,9.1,14.7,9.1z"/>
			</g>
		</g>
	</g>
</g>
</svg>
