<svg xmlns="http://www.w3.org/2000/svg" width="177.562" height="12.781" viewBox="0 0 177.562 12.781">
  <defs>
    <style>
      .cls-1 {
        fill-rule: evenodd;
      }
    </style>
  </defs>
  <path id="orf-info_sfc.keio.ac.jp_0466-49-3436" data-name="orf-info@sfc.keio.ac.jp 0466-49-3436" class="cls-1" d="M657.179,177.746a4.245,4.245,0,0,0,.216,1.376,3.319,3.319,0,0,0,.618,1.1,2.845,2.845,0,0,0,.983.736,3.111,3.111,0,0,0,1.309.266,3.076,3.076,0,0,0,1.3-.266,2.852,2.852,0,0,0,.98-0.736,3.319,3.319,0,0,0,.618-1.1,4.245,4.245,0,0,0,.215-1.376v-0.14a4.268,4.268,0,0,0-.215-1.379,3.319,3.319,0,0,0-.618-1.107,2.863,2.863,0,0,0-.983-0.738,3.067,3.067,0,0,0-1.309-.27,3.029,3.029,0,0,0-1.3.27,2.87,2.87,0,0,0-.98.738,3.319,3.319,0,0,0-.618,1.107,4.268,4.268,0,0,0-.216,1.379v0.14Zm1.173-.14a3.794,3.794,0,0,1,.121-0.961,2.488,2.488,0,0,1,.365-0.808,1.833,1.833,0,0,1,.605-0.555,1.861,1.861,0,0,1,1.7,0,1.836,1.836,0,0,1,.609.555,2.557,2.557,0,0,1,.368.808,3.707,3.707,0,0,1,.123.961v0.14a3.818,3.818,0,0,1-.12.967,2.488,2.488,0,0,1-.365.808,1.794,1.794,0,0,1-.608.552,1.718,1.718,0,0,1-.847.2,1.747,1.747,0,0,1-.856-0.2,1.785,1.785,0,0,1-.611-0.552,2.488,2.488,0,0,1-.365-0.808,3.818,3.818,0,0,1-.121-0.967v-0.14Zm10.11-3.167a3.135,3.135,0,0,0-1,.891l-0.057-1.091h-1.116V181.1h1.18v-4.4a2.154,2.154,0,0,1,.751-1.046,2.206,2.206,0,0,1,1.335-.374,5.762,5.762,0,0,1,.643.035,6.107,6.107,0,0,1,.65.111L671,174.277a1.445,1.445,0,0,0-.225-0.07c-0.091-.021-0.191-0.039-0.3-0.054s-0.221-.025-0.34-0.031-0.232-.01-0.342-0.01A2.7,2.7,0,0,0,668.462,174.439Zm7.561,6.661v-5.954h2.644v-0.907h-2.644v-0.482a1.472,1.472,0,0,1,1.655-1.674,3.945,3.945,0,0,1,.739.066,4.67,4.67,0,0,1,.605.156l0.14-.971c-0.279-.071-0.551-0.131-0.815-0.177a4.645,4.645,0,0,0-.815-0.07,3.359,3.359,0,0,0-1.1.171,2.3,2.3,0,0,0-.846.508,2.267,2.267,0,0,0-.546.834,3.181,3.181,0,0,0-.193,1.157v0.482h-1.89v0.907h1.89V181.1h1.179Zm10-4.521h-4.85v0.964h4.85v-0.964Zm2.853-1.319h2.333v4.826h-2.333V181.1h5.745v-1.014h-2.239v-5.847h-3.506v1.021Zm2.356-2.347a0.824,0.824,0,0,0,1.055,0,0.665,0.665,0,0,0,.178-0.475,0.712,0.712,0,0,0-.178-0.492,0.8,0.8,0,0,0-1.055,0,0.72,0.72,0,0,0-.175.492A0.672,0.672,0,0,0,691.231,172.913Zm5.253,1.326V181.1h1.173v-4.921a2.175,2.175,0,0,1,.713-0.777,1.845,1.845,0,0,1,1.037-.294,2.258,2.258,0,0,1,.662.088,1.187,1.187,0,0,1,.488.286,1.228,1.228,0,0,1,.3.513,2.591,2.591,0,0,1,.1.774V181.1h1.173v-4.356a3.712,3.712,0,0,0-.168-1.183,2.158,2.158,0,0,0-.479-0.821,1.871,1.871,0,0,0-.751-0.476,3,3,0,0,0-.98-0.152,2.519,2.519,0,0,0-1.217.308,2.706,2.706,0,0,0-.919.833l-0.083-1.014h-1.052Zm10.721,6.861v-5.954h2.644v-0.907h-2.644v-0.482a1.473,1.473,0,0,1,1.655-1.674,3.945,3.945,0,0,1,.739.066,4.67,4.67,0,0,1,.6.156l0.14-.971c-0.279-.071-0.551-0.131-0.815-0.177a4.645,4.645,0,0,0-.815-0.07,3.364,3.364,0,0,0-1.1.171,2.3,2.3,0,0,0-.846.508,2.267,2.267,0,0,0-.546.834,3.181,3.181,0,0,0-.193,1.157v0.482h-1.889v0.907h1.889V181.1h1.179Zm4.54-3.354a4.245,4.245,0,0,0,.216,1.376,3.285,3.285,0,0,0,.618,1.1,2.836,2.836,0,0,0,.983.736,3.108,3.108,0,0,0,1.309.266,3.076,3.076,0,0,0,1.3-.266,2.849,2.849,0,0,0,.979-0.736,3.285,3.285,0,0,0,.618-1.1,4.245,4.245,0,0,0,.216-1.376v-0.14a4.268,4.268,0,0,0-.216-1.379,3.284,3.284,0,0,0-.618-1.107,2.853,2.853,0,0,0-.983-0.738,3.064,3.064,0,0,0-1.309-.27,3.032,3.032,0,0,0-1.3.27,2.866,2.866,0,0,0-.979.738,3.284,3.284,0,0,0-.618,1.107,4.268,4.268,0,0,0-.216,1.379v0.14Zm1.173-.14a3.794,3.794,0,0,1,.12-0.961,2.509,2.509,0,0,1,.365-0.808,1.846,1.846,0,0,1,.606-0.555,1.689,1.689,0,0,1,.849-0.206,1.707,1.707,0,0,1,.853.206,1.836,1.836,0,0,1,.609.555,2.555,2.555,0,0,1,.367.808,3.664,3.664,0,0,1,.124.961v0.14a3.818,3.818,0,0,1-.12.967,2.509,2.509,0,0,1-.365.808,1.806,1.806,0,0,1-.609.552,1.714,1.714,0,0,1-.846.2,1.745,1.745,0,0,1-.856-0.2,1.8,1.8,0,0,1-.612-0.552,2.509,2.509,0,0,1-.365-0.808,3.818,3.818,0,0,1-.12-0.967v-0.14Zm13.017-3.25a3.885,3.885,0,0,0-.612-1.341,2.792,2.792,0,0,0-1.011-.859,3.034,3.034,0,0,0-1.376-.3,2.977,2.977,0,0,0-1.03.178,3.134,3.134,0,0,0-.891.5,3.985,3.985,0,0,0-.733.77,5.116,5.116,0,0,0-.558.987,6.307,6.307,0,0,0-.364,1.157,7.374,7.374,0,0,0-.159,1.271,6.946,6.946,0,0,0,.156,1.785,3.862,3.862,0,0,0,.608,1.405,2.853,2.853,0,0,0,1.091.916,3.615,3.615,0,0,0,1.6.327,3.491,3.491,0,0,0,.431-0.029,3.282,3.282,0,0,0,.45-0.088,3.045,3.045,0,0,0,.425-0.149,1.754,1.754,0,0,0,.361-0.21l-0.2-.742a2,2,0,0,1-.311.172,2.809,2.809,0,0,1-.362.13,2.941,2.941,0,0,1-.386.082,2.7,2.7,0,0,1-.387.029,2.882,2.882,0,0,1-1.233-.245,2.165,2.165,0,0,1-.859-0.71,3.078,3.078,0,0,1-.489-1.138,6.013,6.013,0,0,1-.12-1.535,6.383,6.383,0,0,1,.247-1.636,4.264,4.264,0,0,1,.609-1.287,2.883,2.883,0,0,1,.916-0.84,2.323,2.323,0,0,1,1.17-.3,2.423,2.423,0,0,1,1.084.235,2.2,2.2,0,0,1,.8.679,3.041,3.041,0,0,1,.485,1.084,5.314,5.314,0,0,1,.133,1.446,6.335,6.335,0,0,1-.069.875,3.459,3.459,0,0,1-.184.72,1.416,1.416,0,0,1-.3.488,0.572,0.572,0,0,1-.606.149,0.294,0.294,0,0,1-.149-0.124,0.711,0.711,0,0,1-.092-0.253,1.683,1.683,0,0,1-.013-0.422l0.279-3.2a1.488,1.488,0,0,0-.443-0.4,1.349,1.349,0,0,0-.7-0.168,1.634,1.634,0,0,0-.824.212,2.055,2.055,0,0,0-.657.609,3.386,3.386,0,0,0-.459.964,5.8,5.8,0,0,0-.235,1.271,4.43,4.43,0,0,0,.016.907,2.344,2.344,0,0,0,.2.71,1.2,1.2,0,0,0,.371.463,0.9,0.9,0,0,0,.539.165,1.327,1.327,0,0,0,.72-0.206,1.741,1.741,0,0,0,.548-0.561,1.094,1.094,0,0,0,.365.564,1.007,1.007,0,0,0,.643.2,1.188,1.188,0,0,0,.793-0.273,2.05,2.05,0,0,0,.529-0.7,3.915,3.915,0,0,0,.308-0.96,6.747,6.747,0,0,0,.12-1.037A6.284,6.284,0,0,0,725.935,174.356Zm-4.036,1.528a2.743,2.743,0,0,1,.276-0.716,1.316,1.316,0,0,1,.422-0.457,1.054,1.054,0,0,1,.586-0.161,0.862,0.862,0,0,1,.368.082l-0.247,2.822a1.39,1.39,0,0,1-.444.571,0.987,0.987,0,0,1-.565.171,0.472,0.472,0,0,1-.443-0.362,2.546,2.546,0,0,1-.108-1.008A6.612,6.612,0,0,1,721.9,175.884ZM731.781,180a2.18,2.18,0,0,1-1.173.273,2.9,2.9,0,0,1-.6-0.064,1.752,1.752,0,0,1-.554-0.215,1.354,1.354,0,0,1-.419-0.4,1.213,1.213,0,0,1-.193-0.608h-1.173a1.879,1.879,0,0,0,.2.843,2.117,2.117,0,0,0,.577.713,2.963,2.963,0,0,0,.922.5,3.816,3.816,0,0,0,1.243.187,4.1,4.1,0,0,0,1.122-.146,2.771,2.771,0,0,0,.881-0.412,1.951,1.951,0,0,0,.574-0.64,1.7,1.7,0,0,0,.206-0.831,1.511,1.511,0,0,0-.18-0.748,1.746,1.746,0,0,0-.524-0.568,3.348,3.348,0,0,0-.843-0.419,9.333,9.333,0,0,0-1.135-.307,7.273,7.273,0,0,1-.8-0.2,1.941,1.941,0,0,1-.5-0.228,0.75,0.75,0,0,1-.264-0.285,0.837,0.837,0,0,1-.076-0.362,0.82,0.82,0,0,1,.1-0.38,0.951,0.951,0,0,1,.283-0.324,1.46,1.46,0,0,1,.469-0.222,2.347,2.347,0,0,1,.656-0.082,1.966,1.966,0,0,1,.65.1,1.633,1.633,0,0,1,.491.267,1.228,1.228,0,0,1,.317.377,0.908,0.908,0,0,1,.114.434h1.173a1.864,1.864,0,0,0-.193-0.84,2.078,2.078,0,0,0-.548-0.682,2.634,2.634,0,0,0-.863-0.456,3.676,3.676,0,0,0-1.141-.165,3.5,3.5,0,0,0-1.081.159,2.74,2.74,0,0,0-.846.431,1.994,1.994,0,0,0-.552.637,1.625,1.625,0,0,0-.2.783,1.426,1.426,0,0,0,.191.745,1.77,1.77,0,0,0,.535.558,3.536,3.536,0,0,0,.831.409,7.933,7.933,0,0,0,1.075.292,5.553,5.553,0,0,1,.8.213,2.207,2.207,0,0,1,.52.256A0.823,0.823,0,0,1,731.781,180Zm6.6,1.1v-5.954h2.644v-0.907h-2.644v-0.482a1.472,1.472,0,0,1,1.655-1.674,3.945,3.945,0,0,1,.739.066,4.67,4.67,0,0,1,.605.156l0.14-.971c-0.279-.071-0.551-0.131-0.815-0.177a4.645,4.645,0,0,0-.815-0.07,3.359,3.359,0,0,0-1.1.171,2.31,2.31,0,0,0-.847.508,2.277,2.277,0,0,0-.545.834,3.181,3.181,0,0,0-.193,1.157v0.482h-1.89v0.907h1.89V181.1h1.179Zm6.87-1.043a1.753,1.753,0,0,1-.6-0.571,2.424,2.424,0,0,1-.323-0.792,4.056,4.056,0,0,1-.1-0.891v-0.267a3.986,3.986,0,0,1,.1-0.881,2.4,2.4,0,0,1,.326-0.79,1.7,1.7,0,0,1,1.515-.789,1.808,1.808,0,0,1,.663.12,1.647,1.647,0,0,1,.529.33,1.589,1.589,0,0,1,.352.485,1.439,1.439,0,0,1,.137.587h1.109a2.326,2.326,0,0,0-.209-0.977,2.383,2.383,0,0,0-.58-0.789,2.777,2.777,0,0,0-.881-0.527,3.162,3.162,0,0,0-1.12-.193,3.13,3.13,0,0,0-1.363.279,2.829,2.829,0,0,0-.973.751,3.229,3.229,0,0,0-.586,1.094,4.261,4.261,0,0,0-.2,1.3V177.8a4.247,4.247,0,0,0,.2,1.3,3.234,3.234,0,0,0,.586,1.091,2.816,2.816,0,0,0,.973.751,3.13,3.13,0,0,0,1.363.279,2.962,2.962,0,0,0,1.047-.187,3.164,3.164,0,0,0,.887-0.5,2.492,2.492,0,0,0,.618-0.729,1.811,1.811,0,0,0,.238-0.872h-1.109a1.086,1.086,0,0,1-.149.529,1.453,1.453,0,0,1-.378.425,1.8,1.8,0,0,1-.535.282,1.917,1.917,0,0,1-.619.1A1.788,1.788,0,0,1,745.251,180.057Zm7.894,0.628a0.816,0.816,0,0,0,.174.282,0.769,0.769,0,0,0,.285.187,1.092,1.092,0,0,0,.4.067,1.107,1.107,0,0,0,.4-0.067,0.789,0.789,0,0,0,.292-0.187,0.81,0.81,0,0,0,.178-0.282,0.987,0.987,0,0,0,.06-0.346,1.03,1.03,0,0,0-.06-0.355,0.836,0.836,0,0,0-.178-0.288,0.8,0.8,0,0,0-.292-0.194,1.085,1.085,0,0,0-.4-0.07,1.07,1.07,0,0,0-.4.07,0.784,0.784,0,0,0-.285.194,0.842,0.842,0,0,0-.174.288,1.03,1.03,0,0,0-.06.355A0.987,0.987,0,0,0,753.145,180.685Zm10.262,0.415h1.49l-3.2-4,2.777-2.86h-1.427l-2.251,2.257-0.767.825V171.36h-1.179v9.74h1.179v-2.371l0.863-.831Zm7.177,0.016a3.322,3.322,0,0,0,.761-0.3,2.946,2.946,0,0,0,.593-0.421,2.753,2.753,0,0,0,.428-0.5l-0.717-.558a2.416,2.416,0,0,1-.811.672,2.39,2.39,0,0,1-1.116.254,2.094,2.094,0,0,1-.869-0.178,2.044,2.044,0,0,1-.675-0.485,2.294,2.294,0,0,1-.444-0.72,2.7,2.7,0,0,1-.181-0.881h4.9v-0.527a4.722,4.722,0,0,0-.18-1.331,3.044,3.044,0,0,0-.549-1.069,2.54,2.54,0,0,0-.922-0.71,3.063,3.063,0,0,0-1.3-.257,2.885,2.885,0,0,0-1.151.241,3.082,3.082,0,0,0-1,.694,3.412,3.412,0,0,0-.707,1.11,3.918,3.918,0,0,0-.267,1.487v0.267a3.584,3.584,0,0,0,.241,1.325,3.175,3.175,0,0,0,.672,1.053,3.018,3.018,0,0,0,1.037.691,3.477,3.477,0,0,0,1.328.247A3.656,3.656,0,0,0,770.584,181.116Zm-0.3-5.875a1.628,1.628,0,0,1,.542.431,1.91,1.91,0,0,1,.327.6,2.644,2.644,0,0,1,.129.679v0.089h-3.69a2.945,2.945,0,0,1,.244-0.84,2.179,2.179,0,0,1,.428-0.616,1.741,1.741,0,0,1,1.243-.51A1.706,1.706,0,0,1,770.283,175.241Zm4.321,0.019h2.333v4.826H774.6V181.1h5.744v-1.014H778.11v-5.847H774.6v1.021Zm2.355-2.347a0.825,0.825,0,0,0,1.056,0,0.67,0.67,0,0,0,.178-0.475,0.717,0.717,0,0,0-.178-0.492,0.8,0.8,0,0,0-1.056,0,0.724,0.724,0,0,0-.174.492A0.675,0.675,0,0,0,776.959,172.913Zm4.924,4.833a4.245,4.245,0,0,0,.215,1.376,3.319,3.319,0,0,0,.618,1.1,2.845,2.845,0,0,0,.983.736,3.111,3.111,0,0,0,1.309.266,3.073,3.073,0,0,0,1.3-.266,2.852,2.852,0,0,0,.98-0.736,3.319,3.319,0,0,0,.618-1.1,4.245,4.245,0,0,0,.216-1.376v-0.14a4.268,4.268,0,0,0-.216-1.379,3.319,3.319,0,0,0-.618-1.107,2.863,2.863,0,0,0-.983-0.738,3.067,3.067,0,0,0-1.309-.27,3.032,3.032,0,0,0-1.3.27,2.87,2.87,0,0,0-.98.738,3.319,3.319,0,0,0-.618,1.107,4.268,4.268,0,0,0-.215,1.379v0.14Zm1.173-.14a3.794,3.794,0,0,1,.12-0.961,2.488,2.488,0,0,1,.365-0.808,1.833,1.833,0,0,1,.6-0.555,1.69,1.69,0,0,1,.85-0.206,1.713,1.713,0,0,1,.853.206,1.833,1.833,0,0,1,.608.555,2.535,2.535,0,0,1,.368.808,3.707,3.707,0,0,1,.124.961v0.14a3.818,3.818,0,0,1-.121.967,2.507,2.507,0,0,1-.364.808,1.806,1.806,0,0,1-.609.552,1.715,1.715,0,0,1-.847.2,1.743,1.743,0,0,1-.855-0.2,1.779,1.779,0,0,1-.612-0.552,2.488,2.488,0,0,1-.365-0.808,3.818,3.818,0,0,1-.12-0.967v-0.14Zm9.051,3.079a0.816,0.816,0,0,0,.174.282,0.769,0.769,0,0,0,.285.187,1.089,1.089,0,0,0,.4.067,1.107,1.107,0,0,0,.4-0.067,0.777,0.777,0,0,0,.469-0.469,0.965,0.965,0,0,0,.061-0.346,1.007,1.007,0,0,0-.061-0.355,0.8,0.8,0,0,0-.469-0.482,1.085,1.085,0,0,0-.4-0.07,1.067,1.067,0,0,0-.4.07,0.784,0.784,0,0,0-.285.194,0.842,0.842,0,0,0-.174.288,1.007,1.007,0,0,0-.061.355A0.965,0.965,0,0,0,792.107,180.685Zm11.422,0.415V181a3.2,3.2,0,0,1-.178-0.669,4.493,4.493,0,0,1-.063-0.726v-3.19a2.288,2.288,0,0,0-.209-1.008,2.039,2.039,0,0,0-.574-0.72,2.47,2.47,0,0,0-.866-0.431,3.947,3.947,0,0,0-1.084-.143,3.413,3.413,0,0,0-1.144.178,2.779,2.779,0,0,0-.856.466,2.056,2.056,0,0,0-.539.65,1.653,1.653,0,0,0-.194.735H799a0.893,0.893,0,0,1,.1-0.415,1.055,1.055,0,0,1,.295-0.346,1.53,1.53,0,0,1,.466-0.234,2.042,2.042,0,0,1,.625-0.089,2.251,2.251,0,0,1,.675.095,1.459,1.459,0,0,1,.51.27,1.182,1.182,0,0,1,.324.421,1.319,1.319,0,0,1,.114.558v0.539h-1.281a5.542,5.542,0,0,0-1.3.14,2.974,2.974,0,0,0-.993.421,1.961,1.961,0,0,0-.637.708,2.082,2.082,0,0,0-.225.989,1.921,1.921,0,0,0,.168.8,1.86,1.86,0,0,0,.475.64,2.308,2.308,0,0,0,.749.429,2.909,2.909,0,0,0,.986.158,2.75,2.75,0,0,0,.634-0.07,2.985,2.985,0,0,0,.561-0.19,2.8,2.8,0,0,0,.482-0.279,3.381,3.381,0,0,0,.4-0.336,3.8,3.8,0,0,0,.06.415,1.323,1.323,0,0,0,.111.333h1.224Zm-3.9-.983a1.209,1.209,0,0,1-.431-0.244,0.978,0.978,0,0,1-.256-0.371,1.238,1.238,0,0,1-.086-0.469,1.013,1.013,0,0,1,.571-0.958,3.437,3.437,0,0,1,1.6-.3h1.091v1.389a1.656,1.656,0,0,1-.279.39,1.971,1.971,0,0,1-.422.333,2.371,2.371,0,0,1-.542.234,2.205,2.205,0,0,1-.64.089A1.849,1.849,0,0,1,799.629,180.117Zm7.961-.06a1.753,1.753,0,0,1-.6-0.571,2.447,2.447,0,0,1-.324-0.792,4.116,4.116,0,0,1-.1-0.891v-0.267a4.046,4.046,0,0,1,.1-0.881,2.425,2.425,0,0,1,.327-0.79,1.7,1.7,0,0,1,1.515-.789,1.808,1.808,0,0,1,.663.12,1.647,1.647,0,0,1,.529.33,1.589,1.589,0,0,1,.352.485,1.439,1.439,0,0,1,.137.587H811.3a2.326,2.326,0,0,0-.209-0.977,2.4,2.4,0,0,0-.58-0.789,2.782,2.782,0,0,0-.882-0.527,3.41,3.41,0,0,0-2.482.086,2.829,2.829,0,0,0-.973.751,3.231,3.231,0,0,0-.587,1.094,4.291,4.291,0,0,0-.2,1.3V177.8a4.277,4.277,0,0,0,.2,1.3,3.236,3.236,0,0,0,.587,1.091,2.816,2.816,0,0,0,.973.751,3.126,3.126,0,0,0,1.363.279,2.962,2.962,0,0,0,1.047-.187,3.164,3.164,0,0,0,.887-0.5,2.492,2.492,0,0,0,.618-0.729,1.811,1.811,0,0,0,.238-0.872h-1.109a1.086,1.086,0,0,1-.149.529,1.468,1.468,0,0,1-.378.425,1.8,1.8,0,0,1-.535.282,1.917,1.917,0,0,1-.619.1A1.788,1.788,0,0,1,807.59,180.057Zm7.894,0.628a0.816,0.816,0,0,0,.174.282,0.769,0.769,0,0,0,.285.187,1.089,1.089,0,0,0,.4.067,1.107,1.107,0,0,0,.4-0.067,0.789,0.789,0,0,0,.292-0.187,0.81,0.81,0,0,0,.178-0.282,0.987,0.987,0,0,0,.06-0.346,1.03,1.03,0,0,0-.06-0.355,0.836,0.836,0,0,0-.178-0.288,0.8,0.8,0,0,0-.292-0.194,1.085,1.085,0,0,0-.4-0.07,1.067,1.067,0,0,0-.4.07,0.784,0.784,0,0,0-.285.194,0.842,0.842,0,0,0-.174.288,1.007,1.007,0,0,0-.061.355A0.965,0.965,0,0,0,815.484,180.685Zm6.483-5.425h2.289v5.885a2.385,2.385,0,0,1-.124.821,1.39,1.39,0,0,1-.339.536,1.242,1.242,0,0,1-.507.288,2.2,2.2,0,0,1-.622.086l-0.244,0c-0.1,0-.211-0.007-0.323-0.013s-0.223-.015-0.333-0.025-0.2-.023-0.273-0.035l-0.082.964a6.225,6.225,0,0,0,.662.085q0.315,0.023.676,0.022a3.314,3.314,0,0,0,1.131-.18,2.19,2.19,0,0,0,1.37-1.38,3.478,3.478,0,0,0,.181-1.166v-6.906h-3.462v1.021Zm2.295-2.35a0.666,0.666,0,0,0,.526.194,0.689,0.689,0,0,0,.533-0.194,0.681,0.681,0,0,0,.177-0.478,0.708,0.708,0,0,0-.177-0.486,0.677,0.677,0,0,0-.533-0.2,0.655,0.655,0,0,0-.526.2,0.723,0.723,0,0,0-.171.486A0.7,0.7,0,0,0,824.262,172.91Zm10.493,4.7a5.305,5.305,0,0,0-.177-1.41,3.345,3.345,0,0,0-.52-1.107,2.406,2.406,0,0,0-.85-0.723,2.525,2.525,0,0,0-1.166-.26,2.653,2.653,0,0,0-1.126.225,2.289,2.289,0,0,0-.827.65l-0.057-.748H828.96v9.5h1.173v-3.3a2.3,2.3,0,0,0,.821.583,2.821,2.821,0,0,0,1.107.2,2.429,2.429,0,0,0,1.15-.266,2.462,2.462,0,0,0,.847-0.736,3.437,3.437,0,0,0,.52-1.106,5.116,5.116,0,0,0,.177-1.373v-0.134Zm-1.173.134a4.033,4.033,0,0,1-.111.957,2.57,2.57,0,0,1-.339.806,1.716,1.716,0,0,1-.583.554,1.646,1.646,0,0,1-.843.207,1.687,1.687,0,0,1-.964-0.257,1.928,1.928,0,0,1-.609-0.663v-3.3a1.946,1.946,0,0,1,.612-0.675,1.633,1.633,0,0,1,.948-0.263,1.679,1.679,0,0,1,.85.2,1.735,1.735,0,0,1,.586.548,2.5,2.5,0,0,1,.342.8,4,4,0,0,1,.111.954v0.134Z" transform="translate(-657.188 -171.094)"/>
</svg>
